<?xml version="1.0" encoding="UTF-8"?>
<svg enable-background="new 0 0 414.9 129.5" version="1.1" viewBox="0 0 414.9 129.5" xmlSpace="preserve" xmlns="http://www.w3.org/2000/svg" xmlnsXlink="http://www.w3.org/1999/xlink">
<style type="text/css">.st0{fill:#EA5B0C;}</style>
<path class="st0" d="m182.6 127.4h26.3v-98.9h-28.4v54.3c0 13.5-5.7 20.8-16.2 20.8-10.6 0-15.6-6.7-15.6-20.8v-54.3h-28.4v61.9c0 24.5 13 38.7 35.1 38.7 11.5 0 18.5-3 27.2-12.1v10.4z"/>
<path class="st0" d="m329.9 0v38.5c-8.4-7.5-16.4-10.5-26.8-10.5-27.2 0-48.8 22.5-48.8 50.8 0 28.9 21.5 50.8 49.7 50.8 11.4 0 18.3-2.7 25.9-9.8v7.6h28.6v-127.4h-28.6zm-24 103.2c-13.5 0-24.4-10.9-24.4-24.4s10.9-24.4 24.4-24.4 24.4 10.9 24.4 24.4-10.9 24.4-24.4 24.4z"/>
<rect class="st0" x="217.9" y="28.5" width="28.4" height="98.7"/>
<rect class="st0" x="82.9" y=".1" width="28.4" height="127.1"/>
<path class="st0" d="m390.4 127.2c13.5 0 24.4-10.9 24.4-24.4s-10.9-24.4-24.4-24.4-24.4 10.9-24.4 24.4 11 24.4 24.4 24.4"/>
<polygon class="st0" points="0 127.2 28.9 127.2 28.9 80.2 73.8 80.2 73.8 52 28.9 52 28.9 28.5 73.8 28.5 73.8 0.1 0 0.1"/>
</svg>
